  0
SECTION
  2
HEADER
  9
$ACADVER
  1
AC1009
  9
$EXTMAX
 10
740.0
 20
790.0
 30
0.0
  9
$EXTMIN
 10
0.0
 20
0.0
 30
0.0
  9
$INSUNITS
 70
     4
  9
$LUNITS
 70
     2
  9
$LUPREC
 70
     4
  9
$MEASUREMENT
 70
     1
  0
ENDSEC
  0
SECTION
  2
TABLES
  0
TABLE
  2
LAYER
 70
     1
  0
LAYER
  2
0
 70
     0
 62
     7
  6
Continuous
  0
LAYER
  2
Parts
 70
     0
 62
     9
  6
Continuous
  0
ENDTAB
  0
TABLE
  2
APPID
 70
     1
  0
APPID
  2
ACAD
 70
     0
  0
ENDTAB
  0
ENDSEC
  0
SECTION
  2
ENTITIES
  0
POINT
  8
Parts
 10
20.0
 20
770.0
 30
0.0
  0
POINT
  8
Parts
 10
20.0
 20
690.0
 30
0.0
  0
POINT
  8
Parts
 10
20.0
 20
610.0
 30
0.0
  0
POINT
  8
Parts
 10
480.0
 20
610.0
 30
0.0
  0
POINT
  8
Parts
 10
480.0
 20
690.0
 30
0.0
  0
POINT
  8
Parts
 10
480.0
 20
770.0
 30
0.0
  0
POINT
  8
Parts
 10
250.0
 20
540.0
 30
0.0
  0
POINT
  8
Parts
 10
315.0
 20
540.0
 30
0.0
  0
POINT
  8
Parts
 10
380.0
 20
540.0
 30
0.0
  0
POINT
  8
Parts
 10
445.0
 20
540.0
 30
0.0
  0
POINT
  8
Parts
 10
510.0
 20
540.0
 30
0.0
  0
POINT
  8
Parts
 10
720.0
 20
490.0
 30
0.0
  0
POINT
  8
Parts
 10
720.0
 20
385.0
 30
0.0
  0
POINT
  8
Parts
 10
720.0
 20
280.0
 30
0.0
  0
POINT
  8
Parts
 10
720.0
 20
175.0
 30
0.0
  0
POINT
  8
Parts
 10
720.0
 20
70.0
 30
0.0
  0
POINT
  8
Parts
 10
510.0
 20
20.0
 30
0.0
  0
POINT
  8
Parts
 10
445.0
 20
20.0
 30
0.0
  0
POINT
  8
Parts
 10
380.0
 20
20.0
 30
0.0
  0
POINT
  8
Parts
 10
315.0
 20
20.0
 30
0.0
  0
POINT
  8
Parts
 10
250.0
 20
20.0
 30
0.0
  0
POINT
  8
Parts
 10
20.0
 20
70.0
 30
0.0
  0
POINT
  8
Parts
 10
20.0
 20
175.0
 30
0.0
  0
POINT
  8
Parts
 10
20.0
 20
280.0
 30
0.0
  0
POINT
  8
Parts
 10
20.0
 20
385.0
 30
0.0
  0
POINT
  8
Parts
 10
20.0
 20
490.0
 30
0.0
  0
POLYLINE
  8
Parts
 66
     1
 10
0.0
 20
0.0
 30
0.0
 70
     1
  0
VERTEX
  8
Parts
 10
230.0
 20
0.0
 42
0.0
  0
VERTEX
  8
Parts
 10
530.0
 20
0.0
 42
0.0
  0
VERTEX
  8
Parts
 10
530.0
 20
50.0
 42
0.0
  0
VERTEX
  8
Parts
 10
740.0
 20
50.0
 42
0.0
  0
VERTEX
  8
Parts
 10
740.0
 20
510.0
 42
0.0
  0
VERTEX
  8
Parts
 10
530.0
 20
510.0
 42
0.0
  0
VERTEX
  8
Parts
 10
530.0
 20
560.0
 42
0.0
  0
VERTEX
  8
Parts
 10
230.0
 20
560.0
 42
0.0
  0
VERTEX
  8
Parts
 10
230.0
 20
510.0
 42
0.0
  0
VERTEX
  8
Parts
 10
0.0
 20
510.0
 42
0.0
  0
VERTEX
  8
Parts
 10
0.0
 20
50.0
 42
0.0
  0
VERTEX
  8
Parts
 10
230.0
 20
50.0
 42
0.0
  0
SEQEND
  0
POLYLINE
  8
Parts
 66
     1
 10
0.0
 20
0.0
 30
0.0
 70
     1
  0
VERTEX
  8
Parts
 10
24.2426406871193
 20
70.0
 42
0.5773502691896
  0
VERTEX
  8
Parts
 10
17.8786796564404
 20
73.6742346141748
 42
0.5773502691896
  0
VERTEX
  8
Parts
 10
17.8786796564404
 20
66.3257653858252
 42
0.5773502691896
  0
SEQEND
  0
POLYLINE
  8
Parts
 66
     1
 10
0.0
 20
0.0
 30
0.0
 70
     1
  0
VERTEX
  8
Parts
 10
24.2426406871193
 20
175.0
 42
0.5773502691896
  0
VERTEX
  8
Parts
 10
17.8786796564404
 20
178.674234614175
 42
0.5773502691896
  0
VERTEX
  8
Parts
 10
17.8786796564404
 20
171.325765385825
 42
0.5773502691896
  0
SEQEND
  0
POLYLINE
  8
Parts
 66
     1
 10
0.0
 20
0.0
 30
0.0
 70
     1
  0
VERTEX
  8
Parts
 10
24.2426406871193
 20
280.0
 42
0.5773502691896
  0
VERTEX
  8
Parts
 10
17.8786796564404
 20
283.674234614175
 42
0.5773502691896
  0
VERTEX
  8
Parts
 10
17.8786796564404
 20
276.325765385825
 42
0.5773502691896
  0
SEQEND
  0
POLYLINE
  8
Parts
 66
     1
 10
0.0
 20
0.0
 30
0.0
 70
     1
  0
VERTEX
  8
Parts
 10
24.2426406871193
 20
385.0
 42
0.5773502691896
  0
VERTEX
  8
Parts
 10
17.8786796564404
 20
388.674234614175
 42
0.5773502691896
  0
VERTEX
  8
Parts
 10
17.8786796564404
 20
381.325765385825
 42
0.5773502691896
  0
SEQEND
  0
POLYLINE
  8
Parts
 66
     1
 10
0.0
 20
0.0
 30
0.0
 70
     1
  0
VERTEX
  8
Parts
 10
24.2426406871193
 20
490.0
 42
0.5773502691896
  0
VERTEX
  8
Parts
 10
17.8786796564404
 20
493.674234614175
 42
0.5773502691896
  0
VERTEX
  8
Parts
 10
17.8786796564404
 20
486.325765385825
 42
0.5773502691896
  0
SEQEND
  0
POLYLINE
  8
Parts
 66
     1
 10
0.0
 20
0.0
 30
0.0
 70
     1
  0
VERTEX
  8
Parts
 10
724.242640687119
 20
70.0
 42
0.5773502691896
  0
VERTEX
  8
Parts
 10
717.87867965644
 20
73.6742346141748
 42
0.5773502691896
  0
VERTEX
  8
Parts
 10
717.87867965644
 20
66.3257653858252
 42
0.5773502691896
  0
SEQEND
  0
POLYLINE
  8
Parts
 66
     1
 10
0.0
 20
0.0
 30
0.0
 70
     1
  0
VERTEX
  8
Parts
 10
724.242640687119
 20
175.0
 42
0.5773502691896
  0
VERTEX
  8
Parts
 10
717.87867965644
 20
178.674234614175
 42
0.5773502691896
  0
VERTEX
  8
Parts
 10
717.87867965644
 20
171.325765385825
 42
0.5773502691896
  0
SEQEND
  0
POLYLINE
  8
Parts
 66
     1
 10
0.0
 20
0.0
 30
0.0
 70
     1
  0
VERTEX
  8
Parts
 10
724.242640687119
 20
280.0
 42
0.5773502691896
  0
VERTEX
  8
Parts
 10
717.87867965644
 20
283.674234614175
 42
0.5773502691896
  0
VERTEX
  8
Parts
 10
717.87867965644
 20
276.325765385825
 42
0.5773502691896
  0
SEQEND
  0
POLYLINE
  8
Parts
 66
     1
 10
0.0
 20
0.0
 30
0.0
 70
     1
  0
VERTEX
  8
Parts
 10
724.242640687119
 20
385.0
 42
0.5773502691896
  0
VERTEX
  8
Parts
 10
717.87867965644
 20
388.674234614175
 42
0.5773502691896
  0
VERTEX
  8
Parts
 10
717.87867965644
 20
381.325765385825
 42
0.5773502691896
  0
SEQEND
  0
POLYLINE
  8
Parts
 66
     1
 10
0.0
 20
0.0
 30
0.0
 70
     1
  0
VERTEX
  8
Parts
 10
724.242640687119
 20
490.0
 42
0.5773502691896
  0
VERTEX
  8
Parts
 10
717.87867965644
 20
493.674234614175
 42
0.5773502691896
  0
VERTEX
  8
Parts
 10
717.87867965644
 20
486.325765385825
 42
0.5773502691896
  0
SEQEND
  0
POLYLINE
  8
Parts
 66
     1
 10
0.0
 20
0.0
 30
0.0
 70
     1
  0
VERTEX
  8
Parts
 10
254.242640687119
 20
20.0
 42
0.5773502691896
  0
VERTEX
  8
Parts
 10
247.87867965644
 20
23.6742346141748
 42
0.5773502691896
  0
VERTEX
  8
Parts
 10
247.87867965644
 20
16.3257653858252
 42
0.5773502691896
  0
SEQEND
  0
POLYLINE
  8
Parts
 66
     1
 10
0.0
 20
0.0
 30
0.0
 70
     1
  0
VERTEX
  8
Parts
 10
319.242640687119
 20
20.0
 42
0.5773502691896
  0
VERTEX
  8
Parts
 10
312.87867965644
 20
23.6742346141748
 42
0.5773502691896
  0
VERTEX
  8
Parts
 10
312.87867965644
 20
16.3257653858252
 42
0.5773502691896
  0
SEQEND
  0
POLYLINE
  8
Parts
 66
     1
 10
0.0
 20
0.0
 30
0.0
 70
     1
  0
VERTEX
  8
Parts
 10
384.242640687119
 20
20.0
 42
0.5773502691896
  0
VERTEX
  8
Parts
 10
377.87867965644
 20
23.6742346141748
 42
0.5773502691896
  0
VERTEX
  8
Parts
 10
377.87867965644
 20
16.3257653858252
 42
0.5773502691896
  0
SEQEND
  0
POLYLINE
  8
Parts
 66
     1
 10
0.0
 20
0.0
 30
0.0
 70
     1
  0
VERTEX
  8
Parts
 10
449.242640687119
 20
20.0
 42
0.5773502691896
  0
VERTEX
  8
Parts
 10
442.87867965644
 20
23.6742346141748
 42
0.5773502691896
  0
VERTEX
  8
Parts
 10
442.87867965644
 20
16.3257653858252
 42
0.5773502691896
  0
SEQEND
  0
POLYLINE
  8
Parts
 66
     1
 10
0.0
 20
0.0
 30
0.0
 70
     1
  0
VERTEX
  8
Parts
 10
514.242640687119
 20
20.0
 42
0.5773502691896
  0
VERTEX
  8
Parts
 10
507.87867965644
 20
23.6742346141748
 42
0.5773502691896
  0
VERTEX
  8
Parts
 10
507.87867965644
 20
16.3257653858252
 42
0.5773502691896
  0
SEQEND
  0
POLYLINE
  8
Parts
 66
     1
 10
0.0
 20
0.0
 30
0.0
 70
     1
  0
VERTEX
  8
Parts
 10
254.242640687119
 20
540.0
 42
0.5773502691896
  0
VERTEX
  8
Parts
 10
247.87867965644
 20
543.674234614175
 42
0.5773502691896
  0
VERTEX
  8
Parts
 10
247.87867965644
 20
536.325765385825
 42
0.5773502691896
  0
SEQEND
  0
POLYLINE
  8
Parts
 66
     1
 10
0.0
 20
0.0
 30
0.0
 70
     1
  0
VERTEX
  8
Parts
 10
319.242640687119
 20
540.0
 42
0.5773502691896
  0
VERTEX
  8
Parts
 10
312.87867965644
 20
543.674234614175
 42
0.5773502691896
  0
VERTEX
  8
Parts
 10
312.87867965644
 20
536.325765385825
 42
0.5773502691896
  0
SEQEND
  0
POLYLINE
  8
Parts
 66
     1
 10
0.0
 20
0.0
 30
0.0
 70
     1
  0
VERTEX
  8
Parts
 10
384.242640687119
 20
540.0
 42
0.5773502691896
  0
VERTEX
  8
Parts
 10
377.87867965644
 20
543.674234614175
 42
0.5773502691896
  0
VERTEX
  8
Parts
 10
377.87867965644
 20
536.325765385825
 42
0.5773502691896
  0
SEQEND
  0
POLYLINE
  8
Parts
 66
     1
 10
0.0
 20
0.0
 30
0.0
 70
     1
  0
VERTEX
  8
Parts
 10
449.242640687119
 20
540.0
 42
0.5773502691896
  0
VERTEX
  8
Parts
 10
442.87867965644
 20
543.674234614175
 42
0.5773502691896
  0
VERTEX
  8
Parts
 10
442.87867965644
 20
536.325765385825
 42
0.5773502691896
  0
SEQEND
  0
POLYLINE
  8
Parts
 66
     1
 10
0.0
 20
0.0
 30
0.0
 70
     1
  0
VERTEX
  8
Parts
 10
514.242640687119
 20
540.0
 42
0.5773502691896
  0
VERTEX
  8
Parts
 10
507.87867965644
 20
543.674234614175
 42
0.5773502691896
  0
VERTEX
  8
Parts
 10
507.87867965644
 20
536.325765385825
 42
0.5773502691896
  0
SEQEND
  0
POLYLINE
  8
Parts
 66
     1
 10
0.0
 20
0.0
 30
0.0
 70
     1
  0
VERTEX
  8
Parts
 10
550.0
 20
307.0
 42
0.0
  0
VERTEX
  8
Parts
 10
645.0
 20
307.0
 42
0.4142135623731
  0
VERTEX
  8
Parts
 10
650.0
 20
312.0
 42
0.4142135623731
  0
VERTEX
  8
Parts
 10
650.0
 20
312.0
 42
0.4142135623731
  0
VERTEX
  8
Parts
 10
645.0
 20
317.0
 42
0.0
  0
VERTEX
  8
Parts
 10
550.0
 20
317.0
 42
0.4142135623731
  0
VERTEX
  8
Parts
 10
545.0
 20
312.0
 42
0.4142135623731
  0
VERTEX
  8
Parts
 10
545.0
 20
312.0
 42
0.4142135623731
  0
SEQEND
  0
POLYLINE
  8
Parts
 66
     1
 10
0.0
 20
0.0
 30
0.0
 70
     1
  0
VERTEX
  8
Parts
 10
550.0
 20
227.0
 42
0.0
  0
VERTEX
  8
Parts
 10
645.0
 20
227.0
 42
0.4142135623731
  0
VERTEX
  8
Parts
 10
650.0
 20
232.0
 42
0.4142135623731
  0
VERTEX
  8
Parts
 10
650.0
 20
232.0
 42
0.4142135623731
  0
VERTEX
  8
Parts
 10
645.0
 20
237.0
 42
0.0
  0
VERTEX
  8
Parts
 10
550.0
 20
237.0
 42
0.4142135623731
  0
VERTEX
  8
Parts
 10
545.0
 20
232.0
 42
0.4142135623731
  0
VERTEX
  8
Parts
 10
545.0
 20
232.0
 42
0.4142135623731
  0
SEQEND
  0
POLYLINE
  8
Parts
 66
     1
 10
0.0
 20
0.0
 30
0.0
 70
     1
  0
VERTEX
  8
Parts
 10
0.0
 20
590.0
 42
0.0
  0
VERTEX
  8
Parts
 10
500.0
 20
590.0
 42
0.0
  0
VERTEX
  8
Parts
 10
500.0
 20
790.0
 42
0.0
  0
VERTEX
  8
Parts
 10
0.0
 20
790.0
 42
0.0
  0
SEQEND
  0
POLYLINE
  8
Parts
 66
     1
 10
0.0
 20
0.0
 30
0.0
 70
     1
  0
VERTEX
  8
Parts
 10
24.2426406871193
 20
610.0
 42
0.5773502691896
  0
VERTEX
  8
Parts
 10
17.8786796564404
 20
613.674234614175
 42
0.5773502691896
  0
VERTEX
  8
Parts
 10
17.8786796564404
 20
606.325765385825
 42
0.5773502691896
  0
SEQEND
  0
POLYLINE
  8
Parts
 66
     1
 10
0.0
 20
0.0
 30
0.0
 70
     1
  0
VERTEX
  8
Parts
 10
24.2426406871193
 20
690.0
 42
0.5773502691896
  0
VERTEX
  8
Parts
 10
17.8786796564404
 20
693.674234614175
 42
0.5773502691896
  0
VERTEX
  8
Parts
 10
17.8786796564404
 20
686.325765385825
 42
0.5773502691896
  0
SEQEND
  0
POLYLINE
  8
Parts
 66
     1
 10
0.0
 20
0.0
 30
0.0
 70
     1
  0
VERTEX
  8
Parts
 10
24.2426406871193
 20
770.0
 42
0.5773502691896
  0
VERTEX
  8
Parts
 10
17.8786796564404
 20
773.674234614175
 42
0.5773502691896
  0
VERTEX
  8
Parts
 10
17.8786796564404
 20
766.325765385825
 42
0.5773502691896
  0
SEQEND
  0
POLYLINE
  8
Parts
 66
     1
 10
0.0
 20
0.0
 30
0.0
 70
     1
  0
VERTEX
  8
Parts
 10
484.242640687119
 20
610.0
 42
0.5773502691896
  0
VERTEX
  8
Parts
 10
477.87867965644
 20
613.674234614175
 42
0.5773502691896
  0
VERTEX
  8
Parts
 10
477.87867965644
 20
606.325765385825
 42
0.5773502691896
  0
SEQEND
  0
POLYLINE
  8
Parts
 66
     1
 10
0.0
 20
0.0
 30
0.0
 70
     1
  0
VERTEX
  8
Parts
 10
484.242640687119
 20
690.0
 42
0.5773502691896
  0
VERTEX
  8
Parts
 10
477.87867965644
 20
693.674234614175
 42
0.5773502691896
  0
VERTEX
  8
Parts
 10
477.87867965644
 20
686.325765385825
 42
0.5773502691896
  0
SEQEND
  0
POLYLINE
  8
Parts
 66
     1
 10
0.0
 20
0.0
 30
0.0
 70
     1
  0
VERTEX
  8
Parts
 10
484.242640687119
 20
770.0
 42
0.5773502691896
  0
VERTEX
  8
Parts
 10
477.87867965644
 20
773.674234614175
 42
0.5773502691896
  0
VERTEX
  8
Parts
 10
477.87867965644
 20
766.325765385825
 42
0.5773502691896
  0
SEQEND
  0
ENDSEC
  0
EOF
